<svg id="Layer_1" enable-background="new 0 0 512 512" height="40" viewBox="0 0 512 512" width="40" xmlns="http://www.w3.org/2000/svg"><g><path d="m78 180.134h154v214h-154z" fill="#80deea"/><path d="m202 180.134h30v214h-30z" fill="#4dd0e1"/><path d="m232 180.134h-154l11.205-41h131.59z" fill="#fff6f0"/><path d="m220.795 139.134h-30l11.205 41h30z" fill="#f0e7dd"/><path d="m380 398c-35.346 0-64-28.654-64-64v-182c0-35.346 28.654-64 64-64 35.346 0 64 28.654 64 64v182c0 35.346-28.654 64-64 64z" fill="#cf7c38"/><path d="m380 88c-5.168 0-10.187.629-15 1.785 28.106 6.753 49 32.036 49 62.215v182c0 30.178-20.894 55.462-49 62.215 4.813 1.156 9.832 1.785 15 1.785 35.346 0 64-28.654 64-64v-182c0-35.346-28.654-64-64-64z" fill="#bf6c34"/><g><g fill="#f0aa57"><path d="m400 168h-40c-8.284 0-15-6.716-15-15 0-8.284 6.716-15 15-15h40c8.284 0 15 6.716 15 15 0 8.284-6.716 15-15 15z"/><path d="m400 228h-40c-8.284 0-15-6.716-15-15 0-8.284 6.716-15 15-15h40c8.284 0 15 6.716 15 15 0 8.284-6.716 15-15 15z"/><path d="m400 288h-40c-8.284 0-15-6.716-15-15 0-8.284 6.716-15 15-15h40c8.284 0 15 6.716 15 15 0 8.284-6.716 15-15 15z"/><path d="m400 348h-40c-8.284 0-15-6.716-15-15 0-8.284 6.716-15 15-15h40c8.284 0 15 6.716 15 15 0 8.284-6.716 15-15 15z"/></g></g><path d="m296 364c-35.346 0-64-28.654-64-64v-182c0-35.346 28.654-64 64-64 35.346 0 64 28.654 64 64v182c0 35.346-28.654 64-64 64z" fill="#cf7c38"/><path d="m296 54c-5.168 0-10.187.629-15 1.785 28.106 6.753 49 32.036 49 62.215v182c0 30.178-20.894 55.462-49 62.215 4.813 1.156 9.832 1.785 15 1.785 35.346 0 64-28.654 64-64v-182c0-35.346-28.654-64-64-64z" fill="#bf6c34"/><g><g fill="#f0aa57"><path d="m316 134h-40c-8.284 0-15-6.716-15-15 0-8.284 6.716-15 15-15h40c8.284 0 15 6.716 15 15 0 8.284-6.716 15-15 15z"/><path d="m316 194h-40c-8.284 0-15-6.716-15-15 0-8.284 6.716-15 15-15h40c8.284 0 15 6.716 15 15 0 8.284-6.716 15-15 15z"/><path d="m316 254h-40c-8.284 0-15-6.716-15-15 0-8.284 6.716-15 15-15h40c8.284 0 15 6.716 15 15 0 8.284-6.716 15-15 15z"/><path d="m316 314h-40c-8.284 0-15-6.716-15-15 0-8.284 6.716-15 15-15h40c8.284 0 15 6.716 15 15 0 8.284-6.716 15-15 15z"/></g></g><path d="m56 310h400v148h-400z" fill="#f0aa57"/><path d="m426 310h30v148h-30z" fill="#e19c4b"/><path d="m296 392.126h-80c-12.15 0-22-9.85-22-22 0-12.15 9.85-22 22-22h80c12.15 0 22 9.85 22 22 0 12.151-9.85 22-22 22z" fill="#43809f"/><g><path d="m276 141.5h40c12.407 0 22.5-10.093 22.5-22.5s-10.094-22.5-22.5-22.5h-40c-12.407 0-22.5 10.093-22.5 22.5s10.093 22.5 22.5 22.5zm0-30h40c4.136 0 7.5 3.364 7.5 7.5s-3.364 7.5-7.5 7.5h-40c-4.136 0-7.5-3.364-7.5-7.5s3.364-7.5 7.5-7.5z"/><path d="m276 201.5h40c12.407 0 22.5-10.093 22.5-22.5s-10.093-22.5-22.5-22.5h-40c-12.407 0-22.5 10.093-22.5 22.5s10.093 22.5 22.5 22.5zm0-30h40c4.136 0 7.5 3.364 7.5 7.5s-3.364 7.5-7.5 7.5h-40c-4.136 0-7.5-3.364-7.5-7.5s3.364-7.5 7.5-7.5z"/><path d="m276 261.5h40c12.407 0 22.5-10.093 22.5-22.5s-10.093-22.5-22.5-22.5h-40c-12.407 0-22.5 10.093-22.5 22.5s10.093 22.5 22.5 22.5zm0-30h40c4.136 0 7.5 3.364 7.5 7.5s-3.364 7.5-7.5 7.5h-40c-4.136 0-7.5-3.364-7.5-7.5s3.364-7.5 7.5-7.5z"/><path d="m455.998 355.961c-4.142 0-7.5 3.358-7.5 7.5v87.039h-224.729c-4.142 0-7.5 3.358-7.5 7.5s3.358 7.5 7.5 7.5h232.229c4.142 0 7.5-3.358 7.5-7.5v-94.539c0-4.142-3.358-7.5-7.5-7.5z"/><path d="m325.499 370.126c0-16.267-13.233-29.5-29.5-29.5h-79.999c-16.266 0-29.5 13.233-29.5 29.5s13.233 29.5 29.5 29.5h80c16.266 0 29.499-13.233 29.499-29.5zm-123.999 0c0-7.995 6.505-14.5 14.5-14.5h80c7.995 0 14.5 6.505 14.5 14.5s-6.505 14.5-14.5 14.5h-80c-7.995 0-14.5-6.504-14.5-14.5z"/><path d="m506.892 158.892c-3.926-1.32-8.18.788-9.502 4.714l-45.892 136.257v-147.863c0-19.105-7.435-37.063-20.937-50.563-13.5-13.501-31.457-20.937-50.563-20.937-7.276 0-14.391 1.076-21.233 3.206-3.233-5.901-7.314-11.38-12.203-16.269-13.5-13.501-31.457-20.937-50.562-20.937-39.425 0-71.499 32.075-71.499 71.5v14.628c-1.104-.629-2.368-.994-3.705-.994h-59.794c-4.142 0-7.5 3.358-7.5 7.5s3.358 7.5 7.5 7.5h54.069l7.104 25.996h-134.348l7.104-25.996h33.659c4.142 0 7.5-3.358 7.5-7.5s-3.358-7.5-7.5-7.5h-39.384c-3.381 0-6.343 2.262-7.235 5.523l-11.205 41c-.012.044-.017.088-.028.132-.049.192-.09.385-.123.583-.016.091-.03.182-.042.274-.023.172-.038.345-.049.52-.007.107-.014.214-.016.321-.001.048-.007.095-.007.143v122.37h-9.111l-46.78-138.894c-1.323-3.925-5.576-6.035-9.502-4.714-3.925 1.322-6.036 5.576-4.714 9.502l48.108 142.836v146.77c0 4.142 3.358 7.5 7.5 7.5h136.794c4.142 0 7.5-3.358 7.5-7.5s-3.358-7.5-7.5-7.5h-129.294v-133h295.714c.004 0 .008.001.013.001.007 0 .014-.001.022-.001h89.248v14.269c0 4.142 3.358 7.5 7.5 7.5s7.5-3.358 7.5-7.5v-20.539l48.108-142.836c1.321-3.926-.79-8.18-4.715-9.502zm-126.893-63.392c15.099 0 29.288 5.875 39.956 16.543s16.543 24.858 16.543 39.957v150.5h-69.048c.029-.834.049-1.668.049-2.5v-4.5h32.5c6.017 0 11.668-2.346 15.894-6.587 4.26-4.245 6.606-9.896 6.606-15.913 0-12.407-10.093-22.5-22.5-22.5h-32.5v-15h32.5c6.017 0 11.668-2.346 15.894-6.587 4.26-4.245 6.606-9.896 6.606-15.913 0-12.407-10.093-22.5-22.5-22.5h-32.5v-15h32.5c6.017 0 11.668-2.346 15.894-6.587 4.26-4.245 6.606-9.896 6.606-15.913 0-12.407-10.093-22.5-22.5-22.5h-32.5v-12.5c0-6.993-1.006-13.829-2.931-20.352 4.989-1.416 10.153-2.148 15.431-2.148zm-12.5 170h32.5c4.136 0 7.5 3.364 7.5 7.5 0 2-.779 3.878-2.213 5.306-1.409 1.415-3.287 2.194-5.287 2.194h-32.5zm0-60h32.5c4.136 0 7.5 3.364 7.5 7.5 0 2-.779 3.878-2.213 5.306-1.409 1.415-3.287 2.194-5.287 2.194h-32.5zm0-60h32.5c4.136 0 7.5 3.364 7.5 7.5 0 2-.779 3.878-2.213 5.306-1.409 1.415-3.287 2.194-5.287 2.194h-32.5zm-127.999-27.5c0-31.154 25.346-56.5 56.5-56.5 15.099 0 29.288 5.875 39.956 16.543 5.216 5.216 9.278 11.279 12.076 17.874.013.032.022.065.036.098.025.06.057.114.084.173 2.849 6.817 4.348 14.198 4.348 21.812v182c0 .831-.023 1.665-.06 2.5h-14.235c.179-1.149.296-2.314.296-3.5 0-12.407-10.093-22.5-22.5-22.5h-40c-6.017 0-11.668 2.346-15.894 6.587-4.26 4.245-6.606 9.896-6.606 15.913 0 1.179.094 2.349.276 3.5h-14.215c-.037-.835-.06-1.669-.06-2.5v-182zm29.869 184.5c-.564-1.06-.869-2.249-.869-3.5 0-2 .779-3.878 2.213-5.306 1.409-1.415 3.287-2.194 5.287-2.194h40c4.136 0 7.5 3.364 7.5 7.5 0 1.241-.301 2.434-.869 3.5zm-183.868-114.866h138.999v114.866h-138.999z"/></g></g></svg>