<?xml version="1.0" encoding="utf-8"?>
<!-- Generator: Adobe Illustrator 22.1.0, SVG Export Plug-In . SVG Version: 6.00 Build 0)  -->
<svg opacity="0.5" height="40" width="40" version="1.1" id="Layer_1" xmlns="http://www.w3.org/2000/svg" xmlns:xlink="http://www.w3.org/1999/xlink" x="0px" y="0px"
	 viewBox="0 0 40 40" style="enable-background:new 0 0 40 40;" xml:space="preserve">
<style type="text/css">
	.st0{fill:#F0AA57;}
	.st1{fill:#E19C4B;}
	.st2{fill:#43809F;}
</style>
<g>
	<g>
		<g>
			<path class="st0" d="M31.3,27.2h-3.1c-0.6,0-1.2-0.5-1.2-1.2s0.5-1.2,1.2-1.2h3.1c0.6,0,1.2,0.5,1.2,1.2S31.9,27.2,31.3,27.2z"/>
		</g>
	</g>
	<path class="st0" d="M4.4,24.2h31.3v11.6H4.4V24.2z"/>
	<path class="st1" d="M33.3,24.2h2.3v11.6h-2.3V24.2z"/>
	<path class="st2" d="M23.1,30.6h-6.3c-0.9,0-1.7-0.8-1.7-1.7c0-0.9,0.8-1.7,1.7-1.7h6.3c0.9,0,1.7,0.8,1.7,1.7
		C24.8,29.9,24.1,30.6,23.1,30.6z"/>
	<g>
		<path d="M35.6,27.8c-0.3,0-0.6,0.3-0.6,0.6v6.8H17.5c-0.3,0-0.6,0.3-0.6,0.6s0.3,0.6,0.6,0.6h18.1c0.3,0,0.6-0.3,0.6-0.6v-7.4
			C36.2,28.1,35.9,27.8,35.6,27.8z"/>
		<path d="M25.4,28.9c0-1.3-1-2.3-2.3-2.3h-6.2c-1.3,0-2.3,1-2.3,2.3c0,1.3,1,2.3,2.3,2.3h6.3C24.4,31.2,25.4,30.2,25.4,28.9z
			 M15.7,28.9c0-0.6,0.5-1.1,1.1-1.1h6.3c0.6,0,1.1,0.5,1.1,1.1S23.7,30,23.1,30h-6.3C16.3,30,15.7,29.5,15.7,28.9z"/>
		<path d="M39.6,12.4c-0.3-0.1-0.6,0.1-0.7,0.4l-3.7,10.9H5.5H4.8L1.1,12.8c-0.1-0.3-0.4-0.5-0.7-0.4c-0.3,0.1-0.5,0.4-0.4,0.7
			l3.8,11.2v11.5c0,0.3,0.3,0.6,0.6,0.6h10.7c0.3,0,0.6-0.3,0.6-0.6s-0.3-0.6-0.6-0.6H5V24.8h23.1c0,0,0,0,0,0c0,0,0,0,0,0h7v1.1
			c0,0.3,0.3,0.6,0.6,0.6s0.6-0.3,0.6-0.6v-1.6L40,13.2C40.1,12.8,39.9,12.5,39.6,12.4z"/>
	</g>
</g>
</svg>
