<?xml version="1.0" encoding="utf-8"?>
<!-- Generator: Adobe Illustrator 22.1.0, SVG Export Plug-In . SVG Version: 6.00 Build 0)  -->
<svg height="40" width="40" version="1.1" id="Capa_1" xmlns="http://www.w3.org/2000/svg" xmlns:xlink="http://www.w3.org/1999/xlink" x="0px" y="0px"
	 viewBox="0 0 40 40" style="enable-background:new 0 0 40 40;" xml:space="preserve">
<style type="text/css">
	.st0{fill:#FF7B79;}
	.st1{fill:#FCE8D0;}
</style>
<path class="st0" d="M7.5,20h25v19.2h-25L7.5,20z"/>
<path class="st1" d="M23.1,24.1c1.8,0,3.1,1.6,3.1,3.4c0,2.6-2.5,4.3-6.2,7.5c-3.7-3.2-6.2-4.9-6.2-7.5c0-1.9,1.3-3.4,3.1-3.4
	c2.4,0,3.1,2.7,3.1,2.7S20.8,24.1,23.1,24.1z"/>
<g>
	<path d="M27,27.6c0-2.3-1.6-4.2-3.9-4.2c-1.6,0-2.5,0.9-3.1,1.7c-0.6-0.9-1.6-1.7-3.1-1.7c-2.3,0-3.9,1.9-3.9,4.2
		c0,2.5,2,4.2,4.9,6.7c0.5,0.4,1,0.9,1.6,1.4c0.1,0.1,0.3,0.2,0.5,0.2s0.4-0.1,0.5-0.2c0.6-0.5,1.1-0.9,1.6-1.4
		C25.1,31.8,27,30.1,27,27.6z M20,34c-0.4-0.3-0.8-0.6-1.1-1c-2.7-2.3-4.4-3.7-4.4-5.5c0-1.5,1-2.6,2.3-2.6c1.7,0,2.3,2.1,2.4,2.2
		c0.1,0.3,0.4,0.6,0.8,0.6c0.4,0,0.7-0.2,0.8-0.6c0,0,0.6-2.2,2.4-2.2c1.3,0,2.3,1.1,2.3,2.6c0,1.8-1.6,3.2-4.4,5.5
		C20.8,33.4,20.4,33.7,20,34z"/>
	<path d="M7.7,19.2l-6.5-5C0.9,14,0.4,14,0.2,14.4c-0.3,0.3-0.2,0.8,0.1,1.1l6.4,4.9v18.8c0,0.4,0.3,0.8,0.8,0.8h9
		c0.4,0,0.8-0.3,0.8-0.8c0-0.4-0.3-0.8-0.8-0.8H8.3V20.8h23.4v17.7h-8.2c-0.4,0-0.8,0.3-0.8,0.8c0,0.4,0.3,0.8,0.8,0.8h9
		c0.4,0,0.8-0.3,0.8-0.8V20.4l6.4-4.9c0.3-0.3,0.4-0.8,0.1-1.1c-0.3-0.3-0.8-0.4-1.1-0.1l-6.5,5H7.7z"/>
	<circle cx="20" cy="39.2" r="0.8"/>
</g>
</svg>
