<?xml version="1.0" encoding="utf-8"?>
<!-- Generator: Adobe Illustrator 22.1.0, SVG Export Plug-In . SVG Version: 6.00 Build 0)  -->
<svg height="33" width="33" version="1.1" id="Capa_1" xmlns="http://www.w3.org/2000/svg" xmlns:xlink="http://www.w3.org/1999/xlink" x="0px" y="0px"
	 viewBox="0 0 33 33" style="enable-background:new 0 0 33 33;" xml:space="preserve">
<style type="text/css">
	.st0{fill:#C6865C;}
	.st1{fill:#B16E3D;}
	.st2{fill:#F4DDB1;}
	.st3{fill:#EFCB84;}
	.st4{fill:#DD636E;}
	.st5{fill:#DA4A54;}
</style>
<g>
	<g>
		<path class="st0" d="M31.9,19.5H1.1c-0.4,0-0.7-0.3-0.7-0.7v-1.3c0-0.4,0.3-0.7,0.7-0.7h30.7c0.4,0,0.7,0.3,0.7,0.7v1.3
			C32.5,19.2,32.2,19.5,31.9,19.5z"/>
	</g>
	<g>
		<path class="st1" d="M31.9,16.9h-2.3c0.4,0,0.7,0.3,0.7,0.7v1.3c0,0.4-0.3,0.7-0.7,0.7h2.3c0.4,0,0.7-0.3,0.7-0.7v-1.3
			C32.5,17.2,32.2,16.9,31.9,16.9z"/>
	</g>
	<g>
		<path class="st2" d="M30.2,32.5H2.8c-0.7,0-1.3-0.6-1.3-1.3V19.5h29.9v11.7C31.5,31.9,30.9,32.5,30.2,32.5z"/>
	</g>
	<g>
		<path class="st3" d="M29.5,19.5v11.7c0,0.7-0.6,1.3-1.3,1.3h2c0.7,0,1.3-0.6,1.3-1.3V19.5L29.5,19.5z"/>
	</g>
	<g>
		<g>
			<path class="st4" d="M19.4,23.4c-0.8-0.8-2.1-0.8-2.9,0c-0.8-0.8-2.1-0.8-2.9,0c-0.8,0.8-0.8,2.1,0,2.9l2.9,2.9l2.9-2.9
				C20.2,25.5,20.2,24.2,19.4,23.4z"/>
		</g>
		<g>
			<path class="st5" d="M19.4,23.4C19,23,18.5,22.8,18,22.8c0.1,0.3,0.1,0.5,0.1,0.8c0,2-1.6,3.5-3.5,3.5c-0.1,0-0.1,0-0.2,0
				l2.2,2.2l2.9-2.9C20.2,25.5,20.2,24.2,19.4,23.4z"/>
		</g>
	</g>
	<g>
		<path d="M1,16.4c-0.6,0-1,0.5-1,1.1v1.3c0,0.6,0.5,1.1,1,1.1v11.2c0,1,0.8,1.8,1.8,1.8h4c0.3,0,0.5-0.2,0.5-0.5S7.1,32,6.8,32h-4
			C2.4,32,2,31.7,2,31.2V20h29v11.2c0,0.5-0.4,0.8-0.8,0.8H9.1c-0.3,0-0.5,0.2-0.5,0.5S8.8,33,9.1,33h21.1c1,0,1.8-0.8,1.8-1.8V20
			c0.6,0,1-0.5,1-1.1v-1.3c0-0.6-0.5-1.1-1-1.1 M32,18.8c0,0.1-0.1,0.2-0.2,0.2H1.1C1,19,1,18.9,1,18.8v-1.3c0-0.1,0.1-0.2,0.2-0.2
			h24.2c0.3,0,0.5-0.2,0.5-0.5c0-0.3-0.2-0.5-0.5-0.5h-3.1l5.3,0c-0.3,0-0.5,0.2-0.5,0.5c0,0.3,0.2,0.5,0.5,0.5h4.3
			c0.1,0,0.2,0.1,0.2,0.2L32,18.8L32,18.8z"/>
		<path d="M16.5,29.7c0.1,0,0.3-0.1,0.3-0.1l2.9-2.9c0.5-0.5,0.8-1.1,0.8-1.8s-0.3-1.3-0.8-1.8c-0.9-0.9-2.3-1-3.3-0.3
			c-1-0.7-2.4-0.6-3.3,0.3c-0.5,0.5-0.8,1.1-0.8,1.8c0,0.7,0.3,1.3,0.8,1.8l2.9,2.9C16.2,29.7,16.4,29.7,16.5,29.7z M13.5,24.8
			c0-0.4,0.2-0.8,0.5-1.1c0.3-0.3,0.7-0.5,1.1-0.5c0.4,0,0.8,0.1,1.1,0.4c0.2,0.2,0.5,0.2,0.7,0c0.6-0.6,1.6-0.6,2.2,0h0
			c0.3,0.3,0.5,0.7,0.5,1.1s-0.2,0.8-0.5,1.1l-2.6,2.6L13.9,26C13.6,25.7,13.5,25.3,13.5,24.8z"/>
	</g>
</g>
</svg>
