<?xml version="1.0" encoding="utf-8"?>
<!-- Generator: Adobe Illustrator 22.1.0, SVG Export Plug-In . SVG Version: 6.00 Build 0)  -->
<svg version="1.1" id="b9b3c72a-3b99-4e28-aee4-7b73d40b397f" width="50" height="50"
	 xmlns="http://www.w3.org/2000/svg" xmlns:xlink="http://www.w3.org/1999/xlink" x="0px" y="0px" viewBox="0 0 427.6 427.6"
	 style="enable-background:new 0 0 427.6 427.6;" xml:space="preserve">
<style type="text/css">
	.st0{fill:#F0AA57;stroke:#000000;stroke-width:4;stroke-miterlimit:10;}
	.st1{fill:#FFB8B8;stroke:#000000;stroke-width:4;stroke-miterlimit:10;}
	.st2{opacity:0.2;stroke:#000000;stroke-width:4;stroke-miterlimit:10;enable-background:new    ;}
	.st3{fill:#3F3D56;stroke:#000000;stroke-width:4;stroke-miterlimit:10;}
	.st4{fill:#FFFFFF;stroke:#000000;stroke-width:4;stroke-miterlimit:10;}
	.st5{fill:#2F2E41;stroke:#000000;stroke-width:4;stroke-miterlimit:10;}
	.st6{fill:#80DEEA;}
	.st7{fill:#4DD0E1;}
	.st8{fill:#FFF6F0;}
	.st9{fill:#F0E7DD;}
	.st10{fill:#CF7C38;}
	.st11{fill:#BF6C34;}
	.st12{fill:#F0AA57;}
	.st13{fill:#E19C4B;}
	.st14{fill:#43809F;}
</style>
<path class="st0" d="M168.2,261.1h-96l-1-29.5c-0.2-4.9,3.7-9,8.5-9.2c0.5,0,0.9,0,1.4,0.1l55.9,6.8h0c17.2,0,31.2,14,31.2,31.3
	V261.1z"/>
<path class="st1" d="M293,174.9c-1.8-5.7-7.8-8.8-13.4-7.1c-0.6,0.2-1.2,0.4-1.8,0.7l-92.1-33l-4.1,23l91.8,25.2
	c3.1,5.1,9.7,6.7,14.8,3.7C292.5,184.9,294.5,179.7,293,174.9z"/>
<path class="st2" d="M293,174.9c-1.8-5.7-7.8-8.8-13.4-7.1c-0.6,0.2-1.2,0.4-1.8,0.7l-92.1-33l-4.1,23l91.8,25.2
	c3.1,5.1,9.7,6.7,14.8,3.7C292.5,184.9,294.5,179.7,293,174.9z"/>
<path class="st0" d="M202,139.7l-8.7,22.7c-1,2.5-3.7,3.7-6.2,2.8c-0.2-0.1-0.4-0.2-0.6-0.3L165.3,153c-6.9-2.7-10.3-10.4-7.6-17.3
	c2.7-6.9,10.4-10.3,17.2-7.6l23.6,5.2c2.6,0.6,4.2,3.1,3.7,5.7C202.2,139.3,202.1,139.5,202,139.7z"/>
<path class="st0" d="M300.2,196l-33,15l4.3,16.3c8.4,31.5,10.6,64.3,6.5,96.6l0,0l24.1,5l20-51l-7-58L300.2,196z"/>
<path class="st3" d="M365,271.5c-21.7,0-39.4,15.8-40.2,35.5h80.4C404.3,287.2,386.6,271.5,365,271.5z"/>
<path class="st3" d="M348.1,274.9c-1.1-89.1-51.9-80.9-51.9-80.9s0.9,27.7,1.4,28.6c32.3,61.2-21,132.9-89,119.7
	c-1.3-0.2-2.5-0.5-3.7-0.8c-17.9-3.7-29.8-20.7-27.2-38.8c6.7-53.7-26.6-52.8-26.6-52.8h-48.7l-25.3-22.7c-3-2.7-7.7-2.5-10.4,0.5
	c-0.6,0.7-1.1,1.5-1.4,2.4l-3.3,8.8c0,0-48,5-44,52h14.8c0,1.3,0,2.7,0.2,4l110.8-0.9c6.5-0.1,12.2,5.2,12.2,11.7
	c0,6.5-5.2,11.8-11.7,11.8c-0.1,0-0.3,0-0.4,0l-17.9-0.6c-5.5,24.5,8,41,22.9,51.4c14,9.6,30.6,14.7,47.6,14.6h48.5
	c63,0,74-53,74-53C352.2,316,348.1,274.9,348.1,274.9z"/>
<circle class="st3" cx="362" cy="355.7" r="56.3"/>
<circle class="st4" cx="362" cy="355.7" r="13.8"/>
<circle class="st3" cx="78" cy="347.2" r="64.8"/>
<circle class="st4" cx="78" cy="347.2" r="15.9"/>
<path class="st3" d="M267.3,215.4l-11.9-32.2c-2.6-7.1,1-14.9,8.1-17.5c0,0,0,0,0,0l34-12.5c12.4-4.6,26.2,1.8,30.8,14.2
	c0,0,0,0,0,0c1,2.7,1.5,5.5,1.5,8.3c0,7.3-3.3,14.2-9,18.7c-2,1.6-4.3,2.9-6.7,3.8L267.3,215.4z"/>
<path class="st0" d="M329.4,175.6c0,7.1-3.2,13.9-8.8,18.3c-16-4.2-25.6-20.6-21.3-36.6c0.4-1.6,1-3.2,1.6-4.7
	c12.7-2.8,25.2,5.3,28,18C329.2,172.3,329.4,173.9,329.4,175.6z"/>
<ellipse class="st0" cx="26.7" cy="280.5" rx="14" ry="17"/>
<polygon class="st1" points="211.8,340.6 224,340.6 229.9,308.8 211.8,308.8 "/>
<path class="st5" d="M208.6,336.6l24.1,0h0c8.5,0,15.4,6.9,15.4,15.4c0,0,0,0,0,0v0.5l-39.5,0L208.6,336.6z"/>
<path class="st5" d="M226,327.6c-0.1,0-0.3,0-0.4,0l-17-1.2c-2.5-0.2-4.3-2.4-4.1-4.9c0-0.4,0.1-0.8,0.3-1.1l22.7-51
	c0.3-0.9,0.3-1.9-0.2-2.8c-0.5-0.9-1.3-1.5-2.2-1.8c-10.7-2.8-38.1-10.2-61.8-18.9c-10.2-3.7-16.6-9.1-19-16
	c-3.2-9.1,1.6-17.4,1.8-17.7l0.2-0.3l22.3,2l24.2,2.1l53,28.4c9.2,5,13.1,16.2,8.8,25.8l-24.4,54.8
	C229.4,326.5,227.8,327.6,226,327.6z"/>
<circle class="st1" cx="172.4" cy="88.4" r="24.6"/>
<polygon class="st1" points="204.8,343.6 217,343.6 222.9,311.8 204.8,311.8 "/>
<path class="st5" d="M201.6,339.6l24.1,0h0c8.5,0,15.4,6.9,15.4,15.4c0,0,0,0,0,0v0.5l-39.5,0L201.6,339.6z"/>
<path class="st5" d="M219,330.6c-0.1,0-0.3,0-0.4,0l-17-1.2c-2.5-0.2-4.3-2.4-4.1-4.9c0-0.4,0.1-0.8,0.3-1.1l22.7-51
	c0.3-0.9,0.3-1.9-0.2-2.8c-0.5-0.9-1.3-1.5-2.2-1.8c-10.7-2.8-38.1-10.2-61.8-18.9c-10.2-3.7-16.6-9.1-19-16
	c-3.2-9.1,1.6-17.4,1.8-17.7l0.2-0.3l22.3,2l24.2,2.1l53,28.4c9.2,5,13.1,16.2,8.8,25.8l-24.4,54.8
	C222.4,329.5,220.8,330.6,219,330.6z"/>
<path class="st0" d="M180,126.8l-26-9c0,0-16.3,12.5-8.5,43.6c4.1,16.1,2.9,33-3.4,48.3c-0.8,1.9-1.6,3.7-2.6,5.5c0,0,29,35,56,9
	L185,173.8C185,173.8,201.5,140.3,180,126.8z"/>
<path class="st5" d="M175.5,113.8c-3.5-5.2-6.3-12.5-2.4-17.5c3.8-4.9,11.3-4.2,17.1-6.4c8.1-3,12.8-12.5,11.3-21.1
	s-8.3-15.6-16.5-18.5s-17.3-2-25.3,1.4c-9.8,4.1-18.3,12-21.8,22.1s-1.6,22.1,5.7,29.8c7.9,8.3,20.2,10.5,31.6,10.4"/>
<path class="st5" d="M152.6,69.1c-4.4,3.6-11.1,2-15.9-1.2s-8.6-7.6-13.7-10.1c-9-4.3-19.9-1.5-28.7,3.4S77.8,72.7,68.5,76.5
	s-21.1,4-28.1-3.2c-4.6,13.4,2.5,28.1,15.9,32.7c7.2,2.5,15.2,1.6,21.8-2.3c10.2-6.2,15.8-19.2,27.2-22.6c6.3-1.9,13.1-0.4,19.4,1.3
	s13,3.4,19.4,2s12.4-7.2,11.6-13.7L152.6,69.1z"/>
<path class="st1" d="M291.7,173.9c-2.4-5.4-8.8-7.8-14.2-5.4c-0.6,0.3-1.1,0.6-1.7,0.9l-95.5-21.4l-1.2,23.3l94.2,13.7
	c3.7,4.7,10.5,5.5,15.2,1.8C292.5,183.8,293.8,178.5,291.7,173.9L291.7,173.9z"/>
<path class="st0" d="M197.1,150.2l-5.8,23.6c-0.6,2.6-3.2,4.2-5.8,3.5c-0.2-0.1-0.5-0.1-0.7-0.2l-22.4-9.2
	c-7.2-1.8-11.5-9.1-9.7-16.2c1.8-7.1,9-11.5,16.2-9.7l24.1,2.3c2.6,0.3,4.6,2.6,4.3,5.3C197.2,149.7,197.2,150,197.1,150.2
	L197.1,150.2z"/>
<circle class="st0" cx="280.7" cy="185.5" r="7"/>
<g>
	<path class="st6" d="M45.5,175.1h32v44.4h-32V175.1z"/>
	<path class="st7" d="M71.2,175.1h6.2v44.4h-6.2V175.1z"/>
	<path class="st8" d="M77.4,175.1h-32l2.3-8.5h27.3L77.4,175.1z"/>
	<path class="st9" d="M75.1,166.6h-6.2l2.3,8.5h6.2L75.1,166.6z"/>
	<path class="st10" d="M108.2,220.3c-7.3,0-13.3-5.9-13.3-13.3v-37.8c0-7.3,5.9-13.3,13.3-13.3s13.3,5.9,13.3,13.3v37.8
		C121.4,214.4,115.5,220.3,108.2,220.3z"/>
	<path class="st11" d="M108.2,156c-1.1,0-2.1,0.1-3.1,0.4c5.8,1.4,10.2,6.6,10.2,12.9v37.8c0,6.3-4.3,11.5-10.2,12.9
		c1,0.2,2,0.4,3.1,0.4c7.3,0,13.3-5.9,13.3-13.3v-37.8C121.4,162,115.5,156,108.2,156z"/>
	<g>
		<g>
			<path class="st12" d="M112.3,172.6H104c-1.7,0-3.1-1.4-3.1-3.1c0-1.7,1.4-3.1,3.1-3.1h8.3c1.7,0,3.1,1.4,3.1,3.1
				C115.4,171.2,114,172.6,112.3,172.6z"/>
			<path class="st12" d="M112.3,185.1H104c-1.7,0-3.1-1.4-3.1-3.1c0-1.7,1.4-3.1,3.1-3.1h8.3c1.7,0,3.1,1.4,3.1,3.1
				C115.4,183.7,114,185.1,112.3,185.1z"/>
			<path class="st12" d="M112.3,197.5H104c-1.7,0-3.1-1.4-3.1-3.1c0-1.7,1.4-3.1,3.1-3.1h8.3c1.7,0,3.1,1.4,3.1,3.1
				C115.4,196.1,114,197.5,112.3,197.5z"/>
			<path class="st12" d="M112.3,210H104c-1.7,0-3.1-1.4-3.1-3.1c0-1.7,1.4-3.1,3.1-3.1h8.3c1.7,0,3.1,1.4,3.1,3.1
				C115.4,208.6,114,210,112.3,210z"/>
		</g>
	</g>
	<path class="st10" d="M90.7,213.3c-7.3,0-13.3-5.9-13.3-13.3v-37.8c0-7.3,5.9-13.3,13.3-13.3s13.3,5.9,13.3,13.3V200
		C104,207.3,98.1,213.3,90.7,213.3z"/>
	<path class="st11" d="M90.7,149c-1.1,0-2.1,0.1-3.1,0.4c5.8,1.4,10.2,6.6,10.2,12.9V200c0,6.3-4.3,11.5-10.2,12.9
		c1,0.2,2,0.4,3.1,0.4c7.3,0,13.3-5.9,13.3-13.3v-37.8C104,154.9,98.1,149,90.7,149z"/>
	<g>
		<g>
			<path class="st12" d="M94.9,165.6h-8.3c-1.7,0-3.1-1.4-3.1-3.1c0-1.7,1.4-3.1,3.1-3.1h8.3c1.7,0,3.1,1.4,3.1,3.1
				C98,164.2,96.6,165.6,94.9,165.6z"/>
			<path class="st12" d="M94.9,178h-8.3c-1.7,0-3.1-1.4-3.1-3.1c0-1.7,1.4-3.1,3.1-3.1h8.3c1.7,0,3.1,1.4,3.1,3.1
				C98,176.6,96.6,178,94.9,178z"/>
			<path class="st12" d="M94.9,190.5h-8.3c-1.7,0-3.1-1.4-3.1-3.1c0-1.7,1.4-3.1,3.1-3.1h8.3c1.7,0,3.1,1.4,3.1,3.1
				C98,189.1,96.6,190.5,94.9,190.5z"/>
			<path class="st12" d="M94.9,202.9h-8.3c-1.7,0-3.1-1.4-3.1-3.1c0-1.7,1.4-3.1,3.1-3.1h8.3c1.7,0,3.1,1.4,3.1,3.1
				C98,201.5,96.6,202.9,94.9,202.9z"/>
		</g>
	</g>
	<path class="st12" d="M40.9,202.1h83v30.7h-83V202.1z"/>
	<path class="st13" d="M117.7,202.1h6.2v30.7h-6.2V202.1z"/>
	<path class="st14" d="M90.7,219.1H74.1c-2.5,0-4.6-2-4.6-4.6c0-2.5,2-4.6,4.6-4.6h16.6c2.5,0,4.6,2,4.6,4.6
		C95.3,217.1,93.3,219.1,90.7,219.1z"/>
	<g>
		<path d="M86.6,167.1h8.3c2.6,0,4.7-2.1,4.7-4.7s-2.1-4.7-4.7-4.7h-8.3c-2.6,0-4.7,2.1-4.7,4.7S84,167.1,86.6,167.1z M86.6,160.9
			h8.3c0.9,0,1.6,0.7,1.6,1.6s-0.7,1.6-1.6,1.6h-8.3c-0.9,0-1.6-0.7-1.6-1.6S85.7,160.9,86.6,160.9z"/>
		<path d="M86.6,179.6h8.3c2.6,0,4.7-2.1,4.7-4.7c0-2.6-2.1-4.7-4.7-4.7h-8.3c-2.6,0-4.7,2.1-4.7,4.7
			C81.9,177.5,84,179.6,86.6,179.6z M86.6,173.3h8.3c0.9,0,1.6,0.7,1.6,1.6c0,0.9-0.7,1.6-1.6,1.6h-8.3c-0.9,0-1.6-0.7-1.6-1.6
			C85,174,85.7,173.3,86.6,173.3z"/>
		<path d="M86.6,192h8.3c2.6,0,4.7-2.1,4.7-4.7c0-2.6-2.1-4.7-4.7-4.7h-8.3c-2.6,0-4.7,2.1-4.7,4.7C81.9,189.9,84,192,86.6,192z
			 M86.6,185.8h8.3c0.9,0,1.6,0.7,1.6,1.6c0,0.9-0.7,1.6-1.6,1.6h-8.3c-0.9,0-1.6-0.7-1.6-1.6C85,186.5,85.7,185.8,86.6,185.8z"/>
		<path d="M123.9,211.6c-0.9,0-1.6,0.7-1.6,1.6v18.1H75.7c-0.9,0-1.6,0.7-1.6,1.6c0,0.9,0.7,1.6,1.6,1.6h48.2c0.9,0,1.6-0.7,1.6-1.6
			v-19.6C125.5,212.3,124.8,211.6,123.9,211.6z"/>
		<path d="M96.9,214.6c0-3.4-2.7-6.1-6.1-6.1H74.1c-3.4,0-6.1,2.7-6.1,6.1c0,3.4,2.7,6.1,6.1,6.1h16.6
			C94.1,220.7,96.9,217.9,96.9,214.6z M71.1,214.6c0-1.7,1.3-3,3-3h16.6c1.7,0,3,1.3,3,3c0,1.7-1.3,3-3,3H74.1
			C72.5,217.6,71.1,216.2,71.1,214.6z"/>
		<path d="M134.5,170.7c-0.8-0.3-1.7,0.2-2,1L123,200v-30.7c0-4-1.5-7.7-4.3-10.5c-2.8-2.8-6.5-4.3-10.5-4.3c-1.5,0-3,0.2-4.4,0.7
			c-0.7-1.2-1.5-2.4-2.5-3.4c-2.8-2.8-6.5-4.3-10.5-4.3c-8.2,0-14.8,6.7-14.8,14.8v3c-0.2-0.1-0.5-0.2-0.8-0.2H62.7
			c-0.9,0-1.6,0.7-1.6,1.6s0.7,1.6,1.6,1.6h11.2l1.5,5.4H47.5l1.5-5.4h7c0.9,0,1.6-0.7,1.6-1.6s-0.7-1.6-1.6-1.6h-8.2
			c-0.7,0-1.3,0.5-1.5,1.1l-2.3,8.5c0,0,0,0,0,0c0,0,0,0.1,0,0.1c0,0,0,0,0,0.1c0,0,0,0.1,0,0.1c0,0,0,0,0,0.1c0,0,0,0,0,0v25.4H42
			l-9.7-28.8c-0.3-0.8-1.2-1.3-2-1c-0.8,0.3-1.3,1.2-1,2l10,29.6v30.5c0,0.9,0.7,1.6,1.6,1.6h28.4c0.9,0,1.6-0.7,1.6-1.6
			c0-0.9-0.7-1.6-1.6-1.6H42.5v-27.6h61.4c0,0,0,0,0,0c0,0,0,0,0,0h18.5v3c0,0.9,0.7,1.6,1.6,1.6c0.9,0,1.6-0.7,1.6-1.6v-4.3
			l10-29.6C135.7,171.9,135.3,171,134.5,170.7z M108.2,157.6c3.1,0,6.1,1.2,8.3,3.4c2.2,2.2,3.4,5.2,3.4,8.3v31.2h-14.3
			c0-0.2,0-0.3,0-0.5v-0.9h6.7c1.2,0,2.4-0.5,3.3-1.4c0.9-0.9,1.4-2.1,1.4-3.3c0-2.6-2.1-4.7-4.7-4.7h-6.7v-3.1h6.7
			c1.2,0,2.4-0.5,3.3-1.4c0.9-0.9,1.4-2.1,1.4-3.3c0-2.6-2.1-4.7-4.7-4.7h-6.7v-3.1h6.7c1.2,0,2.4-0.5,3.3-1.4
			c0.9-0.9,1.4-2.1,1.4-3.3c0-2.6-2.1-4.7-4.7-4.7h-6.7v-2.6c0-1.5-0.2-2.9-0.6-4.2C106,157.7,107.1,157.6,108.2,157.6z
			 M105.6,192.8h6.7c0.9,0,1.6,0.7,1.6,1.6c0,0.4-0.2,0.8-0.5,1.1c-0.3,0.3-0.7,0.5-1.1,0.5h-6.7V192.8z M105.6,180.4h6.7
			c0.9,0,1.6,0.7,1.6,1.6c0,0.4-0.2,0.8-0.5,1.1c-0.3,0.3-0.7,0.5-1.1,0.5h-6.7V180.4z M105.6,167.9h6.7c0.9,0,1.6,0.7,1.6,1.6
			c0,0.4-0.2,0.8-0.5,1.1c-0.3,0.3-0.7,0.5-1.1,0.5h-6.7V167.9z M79,162.2c0-6.5,5.3-11.7,11.7-11.7c3.1,0,6.1,1.2,8.3,3.4
			c1.1,1.1,1.9,2.3,2.5,3.7c0,0,0,0,0,0c0,0,0,0,0,0c0.6,1.4,0.9,2.9,0.9,4.5V200c0,0.2,0,0.3,0,0.5h-3c0-0.2,0.1-0.5,0.1-0.7
			c0-2.6-2.1-4.7-4.7-4.7h-8.3c-1.2,0-2.4,0.5-3.3,1.4c-0.9,0.9-1.4,2.1-1.4,3.3c0,0.2,0,0.5,0.1,0.7H79c0-0.2,0-0.3,0-0.5L79,162.2
			L79,162.2z M85.2,200.5c-0.1-0.2-0.2-0.5-0.2-0.7c0-0.4,0.2-0.8,0.5-1.1c0.3-0.3,0.7-0.5,1.1-0.5h8.3c0.9,0,1.6,0.7,1.6,1.6
			c0,0.3-0.1,0.5-0.2,0.7H85.2z M47,176.7h28.8v23.8H47V176.7z"/>
	</g>
</g>
</svg>
