<?xml version="1.0" encoding="utf-8"?>
<!-- Generator: Adobe Illustrator 22.1.0, SVG Export Plug-In . SVG Version: 6.00 Build 0)  -->
<svg width="90" height="90" version="1.1" id="Capa_1" xmlns="http://www.w3.org/2000/svg" xmlns:xlink="http://www.w3.org/1999/xlink" x="0px" y="0px"
	 viewBox="0 0 100 100" style="enable-background:new 0 0 100 100;" xml:space="preserve">
<style type="text/css">
	.st0{fill:#EE878A;}
	.st1{fill:none;stroke:#000000;stroke-width:1.0355;stroke-linecap:round;stroke-miterlimit:10;}
	.st2{fill:none;stroke:#000000;stroke-width:1.0248;stroke-linecap:round;stroke-linejoin:round;stroke-miterlimit:10;}
	.st3{fill:#80DEEA;}
	.st4{fill:#4DD0E1;}
	.st5{fill:#FFF6F0;}
	.st6{fill:#F0E7DD;}
	.st7{fill:#CF7C38;}
	.st8{fill:#BF6C34;}
	.st9{fill:#F0AA57;}
	.st10{fill:#E19C4B;}
	.st11{fill:#43809F;}
	.st12{fill:#ECECEC;}
	.st13{fill:#B6C1CE;}
	.st14{fill:#FB5968;}
	.st15{fill:#CD2C5A;}
	.st16{fill:#FFEAA7;}
	.st17{fill:#92E0C0;}
	.st18{fill:#D3A06C;}
	.st19{fill:#EABD8C;}
	.st20{fill:#39C3FC;}
</style>
<g id="XMLID_225_">
	<g>
		<path class="st0" d="M94.3,45.4C94.3,65.8,80,83,61.1,87.3l-8.4,10.7c-0.8,1.1-2.3,1.1-3,0l-8.4-10.9C22.4,82.7,8.4,65.6,8.4,45.4
			c0-23.8,19.1-43,43-43C75.1,2.4,94.3,21.7,94.3,45.4z M82.4,45.4c0-17.2-14-31.2-31.2-31.2s-31.2,14-31.2,31.2s14,31.2,31.2,31.2
			S82.4,62.7,82.4,45.4z"/>
	</g>
</g>
<path class="st1" d="M27.7,65.6c-4.7-5.4-7.5-12.4-7.5-20.2c0-17.1,14-31.1,31.1-31.1s31.1,14,31.1,31.1s-14,31.1-31.1,31.1
	c-7.6,0-14.4-2.6-19.9-7.1"/>
<path class="st2" d="M83.6,17.3c6.4,7.5,10.2,17.2,10.2,27.8c0,20.2-14.1,37.3-32.9,41.6c-1.9,2.5-6.7,11.2-9.8,12
	c-3.1-0.9-7.9-9.3-9.8-12c-19.7-4.7-34-22.8-32.9-44.1C9.7,21.2,26.9,3.8,48.4,2.4c11.5-0.8,22.1,3.1,30.3,9.8"/>
<g>
	<path class="st3" d="M7.4,20.4h12.3v17.1H7.4C7.4,37.6,7.4,20.4,7.4,20.4z"/>
	<path class="st4" d="M17.1,20.4h2.3v17.1h-2.3V20.4z"/>
	<path class="st5" d="M19.6,20.4H7.4l0.9-3.3h10.6L19.6,20.4z"/>
	<path class="st6" d="M18.7,17.2h-2.3l0.9,3.3h2.3L18.7,17.2z"/>
	<path class="st7" d="M31.4,38c-2.8,0-5.1-2.3-5.1-5.1V18.2c0-2.8,2.3-5.1,5.1-5.1s5.1,2.3,5.1,5.1v14.6C36.6,35.6,34.4,38,31.4,38z
		"/>
	<path class="st8" d="M31.4,13.1c-0.5,0-0.8,0-1.2,0.2c2.3,0.6,4,2.6,4,5v14.6c0,2.5-1.7,4.3-3.9,5c0.5,0.2,0.8,0.2,1.2,0.2
		c2.8,0,5.1-2.3,5.1-5.1V18.2C36.6,15.4,34.4,13.1,31.4,13.1z"/>
	<g>
		<g>
			<path class="st9" d="M33.1,19.5H30c-0.6,0-1.2-0.5-1.2-1.2c0-0.6,0.5-1.2,1.2-1.2h3.1c0.6,0,1.2,0.5,1.2,1.2
				C34.4,19,33.8,19.5,33.1,19.5z"/>
			<path class="st9" d="M33.1,24.3H30c-0.6,0-1.2-0.5-1.2-1.2c0-0.6,0.5-1.2,1.2-1.2h3.1c0.6,0,1.2,0.5,1.2,1.2S33.8,24.3,33.1,24.3
				z"/>
			<path class="st9" d="M33.1,29.1H30c-0.6,0-1.2-0.5-1.2-1.2c0-0.6,0.5-1.2,1.2-1.2h3.1c0.6,0,1.2,0.5,1.2,1.2
				C34.4,28.6,33.8,29.1,33.1,29.1z"/>
			<path class="st9" d="M33.1,34.1H30c-0.6,0-1.2-0.5-1.2-1.2c0-0.6,0.5-1.2,1.2-1.2h3.1c0.6,0,1.2,0.5,1.2,1.2
				C34.4,33.5,33.8,34.1,33.1,34.1z"/>
		</g>
	</g>
	<path class="st7" d="M24.7,35.2c-2.8,0-5.1-2.3-5.1-5.1V15.4c0-2.8,2.3-5.1,5.1-5.1s5.1,2.3,5.1,5.1V30
		C29.9,33,27.5,35.2,24.7,35.2z"/>
	<path class="st8" d="M24.7,10.5c-0.5,0-0.8,0-1.2,0.2c2.3,0.5,3.9,2.5,3.9,5v14.6c0,2.5-1.7,4.3-3.9,5c0.5,0.2,0.8,0.2,1.2,0.2
		c2.8,0,5.1-2.3,5.1-5.1V15.6C29.9,12.6,27.5,10.5,24.7,10.5z"/>
	<g>
		<g>
			<path class="st9" d="M26.3,16.8h-3.1c-0.6,0-1.2-0.5-1.2-1.2s0.5-1.2,1.2-1.2h3.1c0.6,0,1.2,0.5,1.2,1.2
				C27.5,16.2,27.1,16.8,26.3,16.8z"/>
			<path class="st9" d="M26.3,21.7h-3.1c-0.6,0-1.2-0.5-1.2-1.2c0-0.6,0.5-1.2,1.2-1.2h3.1c0.6,0,1.2,0.5,1.2,1.2
				C27.5,21.2,27.1,21.7,26.3,21.7z"/>
			<path class="st9" d="M26.3,26.5h-3.1c-0.6,0-1.2-0.5-1.2-1.2c0-0.6,0.5-1.2,1.2-1.2h3.1c0.6,0,1.2,0.5,1.2,1.2
				S27.1,26.5,26.3,26.5z"/>
			<path class="st9" d="M26.3,31.3h-3.1c-0.6,0-1.2-0.5-1.2-1.2c0-0.6,0.5-1.2,1.2-1.2h3.1c0.6,0,1.2,0.5,1.2,1.2
				C27.5,30.8,27.1,31.3,26.3,31.3z"/>
		</g>
	</g>
	<path class="st9" d="M5.5,31h32v12h-32V31z"/>
	<path class="st10" d="M35.2,31h2.3v12h-2.3V31z"/>
	<path class="st11" d="M24.7,37.5h-6.5c-0.9,0-1.7-0.8-1.7-1.7c0-0.9,0.8-1.7,1.7-1.7h6.5c0.9,0,1.7,0.8,1.7,1.7
		C26.5,36.7,25.7,37.5,24.7,37.5z"/>
	<g>
		<path d="M23.2,17.5h3.1c1.1,0,1.9-0.8,1.9-1.9s-0.8-1.7-1.9-1.7h-3.1c-1.1,0-1.9,0.8-1.9,1.9C21.3,16.7,22.3,17.5,23.2,17.5z
			 M23.2,15h3.1c0.3,0,0.6,0.3,0.6,0.6s-0.3,0.6-0.6,0.6h-3.1c-0.3,0-0.6-0.3-0.6-0.6S22.9,15,23.2,15z"/>
		<path d="M23.2,22.3h3.1c1.1,0,1.9-0.8,1.9-1.9c0-1.1-0.8-1.9-1.9-1.9h-3.1c-1.1,0-1.9,0.8-1.9,1.9C21.3,21.3,22.3,22.3,23.2,22.3z
			 M23.2,19.8h3.1c0.3,0,0.6,0.3,0.6,0.6S26.6,21,26.3,21h-3.1c-0.3,0-0.6-0.3-0.6-0.6C22.6,20.1,22.9,19.8,23.2,19.8z"/>
		<path d="M23.2,27.1h3.1c1.1,0,1.9-0.8,1.9-1.9s-0.8-1.9-1.9-1.9h-3.1c-1.1,0-1.9,0.8-1.9,1.9C21.3,26.2,22.3,27.1,23.2,27.1z
			 M23.2,24.6h3.1c0.3,0,0.6,0.3,0.6,0.6s-0.3,0.6-0.6,0.6h-3.1c-0.3,0-0.6-0.3-0.6-0.6S22.9,24.6,23.2,24.6z"/>
		<path d="M37.6,34.5c-0.3,0-0.6,0.3-0.6,0.6v7H19c-0.3,0-0.6,0.3-0.6,0.6s0.3,0.6,0.6,0.6h18.5c0.3,0,0.6-0.3,0.6-0.6v-7.6
			C38.3,34.9,37.9,34.5,37.6,34.5z"/>
		<path d="M27.1,35.8c0-1.4-1.1-2.3-2.3-2.3h-6.4c-1.4,0-2.3,1.1-2.3,2.3c0,1.2,1.1,2.3,2.3,2.3h6.5C26.1,38.1,27.1,37,27.1,35.8z
			 M17.1,35.8c0-0.6,0.5-1.1,1.1-1.1h6.5c0.6,0,1.1,0.5,1.1,1.1s-0.5,1.1-1.1,1.1h-6.5C17.8,36.9,17.1,36.4,17.1,35.8z"/>
		<path d="M41.7,18.9c-0.3-0.2-0.6,0.2-0.8,0.5l-3.7,10.9v-12c0-1.6-0.6-3-1.7-4c-1.1-1.1-2.5-1.7-4-1.7c-0.6,0-1.1,0.2-1.7,0.3
			c-0.3-0.5-0.6-0.9-1.1-1.4c-1.1-1.1-2.5-1.7-4-1.7c-3.1,0-5.7,2.5-5.7,5.7v1.1c-0.2,0-0.2-0.2-0.3-0.2h-4.8
			c-0.3,0-0.6,0.3-0.6,0.6s0.3,0.6,0.6,0.6h4.3l0.6,2H8l0.6-2h2.6c0.3,0,0.6-0.3,0.6-0.6s-0.3-0.6-0.6-0.6H8.1
			c-0.3,0-0.5,0.2-0.6,0.5l-0.9,3.3l0,0l0,0l0,0l0,0l0,0l0,0v9.8H5.8L2.1,19c-0.2-0.3-0.5-0.5-0.8-0.5C1,18.7,0.8,19,0.8,19.3
			l3.9,11.5v11.8c0,0.3,0.3,0.6,0.6,0.6h11.2c0.3,0,0.6-0.3,0.6-0.6c0-0.3-0.3-0.6-0.6-0.6H6.1V31.3h23.6l0,0l0,0h7.1v1.1
			c0,0.3,0.3,0.6,0.6,0.6c0.3,0,0.6-0.3,0.6-0.6v-1.7L42,19.2C42.1,19.2,42,19,41.7,18.9z M31.4,13.7c1.2,0,2.3,0.5,3.1,1.4
			c0.8,0.8,1.4,2,1.4,3.1v12.1h-5.6c0-0.2,0-0.2,0-0.2v-0.5h2.5c0.5,0,0.9-0.2,1.2-0.5c0.3-0.3,0.5-0.8,0.5-1.2
			c0-1.1-0.8-1.9-1.9-1.9h-2.5v-1.2h2.5c0.5,0,0.9-0.2,1.2-0.5c0.3-0.3,0.5-0.8,0.5-1.2c0-1.1-0.8-1.9-1.9-1.9H30v-1.2h2.5
			c0.5,0,0.9-0.2,1.2-0.5c0.3-0.3,0.5-0.8,0.5-1.2c0-1.1-0.8-1.9-1.9-1.9h-2.5v-1.1c0-0.5-0.2-1.1-0.2-1.7
			C30.6,13.9,31,13.7,31.4,13.7z M30.5,27.4H33c0.3,0,0.6,0.3,0.6,0.6c0,0.2-0.2,0.3-0.2,0.5c-0.2,0.2-0.3,0.2-0.5,0.2h-2.5V27.4z
			 M30.5,22.6H33c0.3,0,0.6,0.3,0.6,0.6c0,0.2-0.2,0.3-0.2,0.5c-0.2,0.2-0.3,0.2-0.5,0.2h-2.5V22.6z M30.5,17.8H33
			c0.3,0,0.6,0.3,0.6,0.6c0,0.2-0.2,0.3-0.2,0.5C33.3,19,33.1,19,33,19h-2.5C30.5,19,30.5,17.8,30.5,17.8z M20.2,15.6
			c0-2.5,2-4.5,4.5-4.5c1.2,0,2.3,0.5,3.1,1.4c0.5,0.5,0.8,0.9,0.9,1.4l0,0l0,0c0.2,0.5,0.3,1.1,0.3,1.7v14.6c0,0.2,0,0.2,0,0.2H28
			c0-0.2,0-0.2,0-0.3c0-1.1-0.8-1.9-1.9-1.9H23c-0.5,0-0.9,0.2-1.2,0.5c-0.3,0.3-0.5,0.8-0.5,1.2c0,0.2,0,0.2,0,0.3h-1.1
			c0-0.2,0-0.2,0-0.2L20.2,15.6L20.2,15.6z M22.6,30.4c0-0.2-0.2-0.2-0.2-0.3c0-0.2,0.2-0.3,0.2-0.5c0-0.2,0.3-0.2,0.5-0.2h3.1
			c0.3,0,0.6,0.3,0.6,0.6c0,0.2,0,0.2-0.2,0.3C26.6,30.4,22.6,30.4,22.6,30.4z M7.8,21H19v9.2H7.8C7.8,30.2,7.8,21,7.8,21z"/>
	</g>
</g>
<g>
	<rect x="38.7" y="66.5" class="st12" width="25" height="14.6"/>
	<rect x="38.7" y="79.6" class="st13" width="25" height="1.6"/>
	<path class="st14" d="M62.2,55h-4.7H44.9h-4.7l-3.1,9.5v1.6c0,0.8,0.8,1.6,1.6,1.6c0.8,0,1.6-0.8,1.6-1.6c0,0.8,0.8,1.6,1.6,1.6
		s1.6-0.8,1.6-1.6c0,0.8,0.8,1.6,1.6,1.6s1.6-0.8,1.6-1.6c0,0.8,0.8,1.6,1.6,1.6s1.6-0.8,1.6-1.6c0,0.8,0.8,1.6,1.6,1.6
		s1.6-0.8,1.6-1.6c0,0.8,0.8,1.6,1.6,1.6s1.6-0.8,1.6-1.6c0,0.8,0.8,1.6,1.6,1.6s1.6-0.8,1.6-1.6c0,0.8,0.8,1.6,1.6,1.6
		c0.8,0,1.6-0.8,1.6-1.6c0,0.8,0.8,1.6,1.6,1.6c0.8,0,1.6-0.8,1.6-1.6v-1.6L62.2,55z"/>
	<path class="st15" d="M38.7,67.5c0.8,0,1.6-0.8,1.6-1.6c0,0.8,0.8,1.6,1.6,1.6s1.6-0.8,1.6-1.6c0,0.8,0.8,1.6,1.6,1.6
		s1.6-0.8,1.6-1.6c0,0.8,0.8,1.6,1.6,1.6s1.6-0.8,1.6-1.6c0,0.8,0.8,1.6,1.6,1.6s1.6-0.8,1.6-1.6c0,0.8,0.8,1.6,1.6,1.6
		s1.6-0.8,1.6-1.6c0,0.8,0.8,1.6,1.6,1.6c0.8,0,1.6-0.8,1.6-1.6c0,0.8,0.8,1.6,1.6,1.6s1.6-0.8,1.6-1.6c0,0.8,0.8,1.6,1.6,1.6
		c0.8,0,1.6-0.8,1.6-1.6v-1.6H37v1.6C37,66.8,37.8,67.5,38.7,67.5z"/>
	<circle class="st16" cx="51.1" cy="56" r="6.2"/>
	<g>
		<path class="st17" d="M43.4,76.9L43.4,76.9c-0.3-0.6-0.9-1.1-1.6-1.1c-0.2,0-0.2,0-0.5,0c-0.3-0.3-0.8-0.6-1.2-0.6
			c-0.5,0-0.9,0.2-1.2,0.6c-0.2,0-0.2,0-0.5,0c-0.8,0-1.2,0.5-1.4,1.1h-0.2c-0.8,0-1.6,0.8-1.6,1.6V81h9.5v-2.5
			C44.9,77.6,44.3,76.9,43.4,76.9z"/>
		<path class="st17" d="M65.3,76.9L65.3,76.9c-0.3-0.6-0.9-1.1-1.6-1.1c-0.2,0-0.2,0-0.5,0c-0.3-0.3-0.8-0.6-1.2-0.6
			c-0.5,0-0.9,0.2-1.2,0.6c-0.2,0-0.2,0-0.5,0c-0.8,0-1.2,0.5-1.4,1.1h-0.2c-0.8,0-1.6,0.8-1.6,1.6V81h9.5v-2.5
			C66.8,77.6,66.2,76.9,65.3,76.9z"/>
	</g>
	<g>
		<rect x="57.5" y="79" class="st18" width="9.5" height="2"/>
		<rect x="35.5" y="79" class="st18" width="9.5" height="2"/>
	</g>
	<rect x="47" y="69.6" class="st19" width="8.2" height="11.5"/>
	<rect x="47" y="79.6" class="st18" width="8.2" height="1.6"/>
	<g>
		<rect x="41.2" y="70.1" class="st20" width="3.1" height="3.1"/>
		<rect x="58" y="70.1" class="st20" width="3.1" height="3.1"/>
	</g>
	<path d="M65.6,76.5c-0.3-0.5-0.8-0.8-1.4-1.1v-7.5c0.9-0.2,1.6-1.1,1.6-2v-1.7l-3.3-9.8h-4.7c-0.8-3-3.4-5.3-6.5-5.3
		c-3.1,0-5.9,2.3-6.5,5.3h-4.7l-3.4,9.8v1.7c0,0.9,0.8,1.7,1.6,2v7.5c-0.5,0.2-1.1,0.5-1.4,1.1c-1.1,0.2-1.9,1.1-1.9,2v3.1h32.5
		v-3.1C67.5,77.4,66.5,76.5,65.6,76.5z M64.8,77.1l0.2,0.5h0.5h0.2c0.6,0,1.1,0.5,1.1,1.1h-8.2c0-0.6,0.5-1.1,1.1-1.1H60l0.2-0.5
		c0.2-0.5,0.5-0.8,1.1-0.8c0.2,0,0.2,0,0.2,0l0.3,0.2l0.2-0.2c0.5-0.5,1.2-0.5,1.7,0l0.2,0.2l0.3-0.2c0.2,0,0.2,0,0.2,0
		C64.2,76.5,64.5,76.6,64.8,77.1z M63.7,67c-0.6,0-1.1-0.5-1.1-1.1V65h2v1.1C64.8,66.5,64.3,67,63.7,67z M48.5,56.6
		c-0.6,0-1.1-0.5-1.1-1.1c0-0.8,0.6-2,1.1-2c0.5,0,1.1,1.4,1.1,2C49.8,56,49.1,56.6,48.5,56.6z M49.1,62.5v1.4h-2l0.2-2.3
		C47.9,62,48.5,62.3,49.1,62.5z M55,61.6l0.2,2.3h-2L53,62.5C53.9,62.3,54.6,62,55,61.6z M59.4,63.9L58,55.7h1.6l1.9,8.2
		C61.4,63.9,59.4,63.9,59.4,63.9z M58.4,63.9h-2l-0.3-3.1c0.6-0.6,1.1-1.4,1.6-2.3L58.4,63.9z M52.1,62.7l0.2,1.1h-2l0.2-1.1
		c0.3,0,0.6,0.2,0.9,0.2S51.8,62.8,52.1,62.7z M46,63.9h-2l0.9-5.3c0.3,0.8,0.8,1.7,1.6,2.3L46,63.9z M42.9,63.9h-2l1.9-8.2h1.6
		L42.9,63.9z M40.7,65h2v1.1c0,0.6-0.5,1.1-1.1,1.1c-0.5,0-1.1-0.5-1.1-1.1V65H40.7z M44,65h2v1.1c0,0.6-0.5,1.1-1.1,1.1
		s-1.1-0.5-1.1-1.1V65H44z M47,65h2.2v1.1c0,0.6-0.5,1.1-1.1,1.1c-0.5,0-1.1-0.5-1.1-1.1V65z M50.2,65h2v1.1c0,0.6-0.5,1.1-1.1,1.1
		s-1.1-0.5-1.1-1.1V65H50.2z M53.3,65h2v1.1c0,0.6-0.5,1.1-1.1,1.1c-0.5,0-1.1-0.5-1.1-1.1V65H53.3z M56.4,65h2v1.1
		c0,0.6-0.5,1.1-1.1,1.1c-0.6,0-1.1-0.5-1.1-1.1V65H56.4z M59.5,65h2v1.1c0,0.6-0.5,1.1-1.1,1.1c-0.5,0-1.1-0.5-1.1-1.1V65H59.5z
		 M64.5,63.9h-2l-1.9-8.2h1.1L64.5,63.9z M51.1,50.2c3.1,0,5.7,2.5,5.7,5.7c0,2-1.1,3.7-2.5,4.8v-3.3c0.9-0.2,1.6-1.1,1.6-2V53h-1.1
		v2.5c0,0.5-0.2,0.8-0.5,0.9V53h-1.1v3.4c-0.3-0.2-0.5-0.5-0.5-0.9V53h-1.1v2.5c0,0.9,0.8,1.7,1.6,2v3.9c-0.6,0.2-1.4,0.5-2,0.5
		c-0.8,0-1.4-0.2-2-0.5v-3.9c0.9-0.2,1.6-1.1,1.6-2s-0.8-3.1-2-3.1c-1.2,0-2,2-2,3.1c0,0.9,0.8,1.7,1.6,2v3.3
		c-1.6-1.1-2.5-2.8-2.5-4.8C45.4,52.9,48,50.2,51.1,50.2z M40.6,55.5h1.1l-1.9,8.4h-2L40.6,55.5z M37.6,65.9V65h2v1.1
		c0,0.6-0.5,1.1-1.1,1.1S37.6,66.5,37.6,65.9z M37,77.4h0.5l0.2-0.5c0.2-0.5,0.5-0.8,1.1-0.8c0.2,0,0.2,0,0.2,0l0.3,0.2l0.2-0.2
		c0.5-0.5,1.2-0.5,1.7,0l0.2,0.2l0.3-0.2c0.2,0,0.2,0,0.2,0c0.5,0,0.8,0.3,1.1,0.8l0.2,0.5h0.5h0.2c0.6,0,1.1,0.5,1.1,1.1h-8.2
		C36.1,77.9,36.6,77.4,37,77.4z M36.1,80.5v-1.1h8.4v1.1H36.1z M54.9,80.5h-7.3V70.1h7.3V80.5z M56.9,80.5h-1.1V69h-9.5v11.5h-1.1
		v-2c0-1.1-0.8-2-1.9-2c-0.5-0.8-1.1-1.1-2-1.1c-0.6-0.6-1.7-0.6-2.5-0.2v-7.1c0.5-0.2,0.8-0.3,1.1-0.6c0.5,0.5,0.9,0.8,1.6,0.8
		c0.6,0,1.2-0.3,1.6-0.8c0.5,0.5,0.9,0.8,1.6,0.8s1.2-0.3,1.6-0.8c0.5,0.5,0.9,0.8,1.6,0.8s1.2-0.3,1.6-0.8c0.5,0.5,0.9,0.8,1.6,0.8
		s1.2-0.3,1.6-0.8c0.5,0.5,0.9,0.8,1.6,0.8s1.2-0.3,1.6-0.8c0.5,0.5,0.9,0.8,1.6,0.8s1.2-0.3,1.6-0.8c0.5,0.5,0.9,0.8,1.6,0.8
		s1.2-0.3,1.6-0.8c0.3,0.3,0.6,0.5,1.1,0.6v7.1c-0.8-0.5-1.7-0.3-2.5,0.2c-0.8-0.2-1.7,0.3-2,1.1c-1.1,0.2-1.9,1.1-1.9,2v2H56.9z
		 M58,80.5v-1.1h8.2v1.1H58z"/>
	<rect x="48.5" y="74.8" width="1.1" height="1.1"/>
	<path d="M40.7,73.8h4.2v-4.2h-4.2V73.8z M41.8,70.7h2v2h-2V70.7z"/>
	<path d="M61.7,69.6h-4.2v4.2h4.2V69.6z M60.5,72.7h-2v-2h2V72.7z"/>
</g>
<g>
	<g>
		<g>
			<path class="st9" d="M90.3,27.9h-3.1c-0.6,0-1.2-0.5-1.2-1.2c0-0.8,0.5-1.2,1.2-1.2h3.1c0.6,0,1.2,0.5,1.2,1.2
				C91.5,27.4,90.9,27.9,90.3,27.9z"/>
		</g>
	</g>
	<path class="st9" d="M62.8,24.8h32.1v12H62.8V24.8z"/>
	<path class="st10" d="M92.5,24.8h2.3v12h-2.3V24.8z"/>
	<path class="st11" d="M81.9,31.3h-6.4c-0.9,0-1.7-0.8-1.7-1.7c0-0.9,0.8-1.7,1.7-1.7h6.5c0.9,0,1.7,0.8,1.7,1.7
		C83.8,30.7,83,31.3,81.9,31.3z"/>
	<g>
		<path d="M94.8,28.5c-0.3,0-0.6,0.3-0.6,0.6v7h-18c-0.3,0-0.6,0.3-0.6,0.6c0,0.3,0.3,0.6,0.6,0.6h18.5c0.3,0,0.6-0.3,0.6-0.6v-7.6
			C95.4,28.8,95.1,28.5,94.8,28.5z"/>
		<path d="M84.4,29.6c0-1.4-1.1-2.3-2.3-2.3h-6.5c-1.4,0-2.3,1.1-2.3,2.3c0,1.4,1.1,2.3,2.3,2.3h6.5C83.3,31.9,84.4,31,84.4,29.6z
			 M74.4,29.6c0-0.6,0.5-1.1,1.1-1.1h6.5c0.6,0,1.1,0.5,1.1,1.1c0,0.6-0.5,1.1-1.1,1.1h-6.5C75.1,30.7,74.4,30.2,74.4,29.6z"/>
		<path d="M98.8,12.6c-0.3-0.2-0.6,0.2-0.8,0.5l-3.7,11.2H63.9h-0.8l-3.7-11.2c-0.2-0.3-0.5-0.5-0.8-0.5c-0.3,0.2-0.5,0.5-0.5,0.8
			L62,24.9v11.8c0,0.3,0.3,0.6,0.6,0.6h11c0.3,0,0.6-0.3,0.6-0.6c0-0.3-0.3-0.6-0.6-0.6H63.3V25.4h23.6l0,0l0,0H94v1.1
			c0,0.3,0.3,0.6,0.6,0.6c0.3,0,0.6-0.3,0.6-0.6v-1.7L99,13.4C99.4,13.1,99.1,12.8,98.8,12.6z"/>
	</g>
</g>
</svg>
