<?xml version="1.0" encoding="utf-8"?>
<!-- Generator: Adobe Illustrator 22.1.0, SVG Export Plug-In . SVG Version: 6.00 Build 0)  -->
<svg version="1.1" id="Calque_1" xmlns="http://www.w3.org/2000/svg" xmlns:xlink="http://www.w3.org/1999/xlink" x="0px" y="0px"
	 viewBox="0 0 874.4 874.4" style="enable-background:new 0 0 874.4 874.4;" xml:space="preserve">
<style type="text/css">
	.st0{fill:#43809F;}
	.st1{fill:#FF7B79;stroke:#000000;stroke-width:9.1491;stroke-miterlimit:10;}
	.st2{fill:#F0AA57;}
	.st3{fill:#E19C4B;}
	.st4{fill:#2E5868;}
	.st5{fill:#CCCCCC;}
	.st6{fill:#FFFFFF;}
	.st7{fill:#E6E6E6;}
	.st8{fill:#FFB8B8;}
</style>
<path class="st4" d="M410.1,834.1l24.1,0h0c8.5,0,15.4,6.9,15.4,15.4c0,0,0,0,0,0v0.5l-39.5,0L410.1,834.1z"/>
<path class="st4" d="M361.1,834.1l24.1,0h0c8.5,0,15.4,6.9,15.4,15.4c0,0,0,0,0,0v0.5l-39.5,0L361.1,834.1z"/>
<g>
	<path class="st0" d="M551.2,802.1H319.1c-35.6,0-64.4-28.8-64.4-64.4c0,0,0,0,0,0v-601c0-35.6,28.9-64.4,64.4-64.4h232.1
		c35.6,0,64.4,28.9,64.4,64.4v108.5h4v80h-4v412.5C615.6,773.2,586.8,802.1,551.2,802.1z M319.1,74.3c-34.4,0-62.4,28-62.4,62.4v601
		c0,34.5,27.9,62.4,62.4,62.4c0,0,0,0,0,0h232.1c34.5,0,62.4-27.9,62.4-62.4V323.2h4v-76h-4V136.7c0-34.4-28-62.4-62.4-62.4H319.1z"
		/>
	<path class="st5" d="M553.8,785.6H320.6c-26.7,0-48.3-21.7-48.4-48.3V137.1c0-26.7,21.7-48.3,48.4-48.4h29.8l-0.6,1.4
		c-4.5,11,0.8,23.5,11.8,28c2.6,1,5.3,1.6,8.1,1.6h133c11.9,0,21.5-9.6,21.5-21.5c0-2.8-0.5-5.5-1.6-8.1l-0.6-1.4h31.8
		c26.7,0,48.3,21.7,48.3,48.4v600.1C602.1,763.9,580.5,785.5,553.8,785.6z M320.6,90.8c-25.6,0-46.3,20.8-46.4,46.4v600.1
		c0,25.6,20.8,46.3,46.4,46.3h233.2c25.6,0,46.3-20.8,46.3-46.3V137.1l0,0c0-25.6-20.8-46.3-46.3-46.4h-28.9
		c4.1,12.3-2.5,25.6-14.8,29.8c-2.4,0.8-4.9,1.2-7.5,1.2h-133c-13,0-23.5-10.5-23.5-23.5c0-2.5,0.4-5.1,1.2-7.5H320.6z"/>
	<path class="st6" d="M627.8,463.1H232.7c-11.7,0-21.1-9.5-21.1-21.1V315.2c0-11.7,9.5-21.1,21.1-21.1h395.1
		c11.7,0,21.1,9.5,21.1,21.1v126.7C648.9,453.6,639.4,463,627.8,463.1z"/>
	<path class="st0" d="M627.8,463.1H232.7c-11.7,0-21.1-9.5-21.1-21.1V315.2c0-11.7,9.5-21.1,21.1-21.1h395.1
		c11.7,0,21.1,9.5,21.1,21.1v126.7C648.9,453.6,639.4,463,627.8,463.1z M232.7,296.6c-10.3,0-18.6,8.3-18.6,18.6v126.7
		c0,10.3,8.3,18.6,18.6,18.6h395.1c10.3,0,18.6-8.3,18.6-18.6V315.2c0-10.3-8.3-18.6-18.6-18.6H232.7z"/>
	<path class="st0" d="M482,371.7H344.1c-5.5,0-9.9-4.5-9.9-9.9c0-5.5,4.5-9.9,9.9-9.9H482c5.5,0,9.9,4.5,9.9,9.9
		C492,367.3,487.5,371.7,482,371.7L482,371.7z"/>
	<path class="st0" d="M610,405.3H344.1c-5.5,0-9.9-4.5-9.9-9.9c0-5.5,4.5-9.9,9.9-9.9H610c5.5,0,9.9,4.5,9.9,9.9
		C620,400.8,615.5,405.3,610,405.3L610,405.3z"/>
	
		<ellipse transform="matrix(0.9985 -5.530038e-02 5.530038e-02 0.9985 -20.5098 15.9395)" class="st0" cx="277.8" cy="378.6" rx="37.3" ry="37.3"/>
	<path class="st6" d="M610,445.7h-34.8c-5.5,0-9.9-4.5-9.9-9.9c0-5.5,4.5-9.9,9.9-9.9H610c5.5,0,9.9,4.5,9.9,9.9
		C619.9,441.2,615.5,445.7,610,445.7z"/>
	<path class="st5" d="M610,445.7h-34.8c-5.5,0-9.9-4.5-9.9-9.9c0-5.5,4.5-9.9,9.9-9.9H610c5.5,0,9.9,4.5,9.9,9.9
		C619.9,441.2,615.5,445.7,610,445.7z"/>
	<path class="st5" d="M550.2,261.6H330.3c-6.5,0-11.7-5.3-11.8-11.8v-70.5c0-6.5,5.3-11.7,11.8-11.8h219.9c6.5,0,11.7,5.3,11.8,11.8
		v70.5C561.9,256.3,556.6,261.6,550.2,261.6z M330.3,168.9c-5.7,0-10.4,4.6-10.4,10.4v70.5c0,5.7,4.6,10.4,10.4,10.4h219.9
		c5.7,0,10.4-4.6,10.4-10.4v-70.5c0-5.7-4.6-10.4-10.4-10.4H330.3z"/>
	<path class="st7" d="M469.1,210.8h-76.7c-3.1,0-5.5-2.5-5.5-5.5c0-3,2.5-5.5,5.5-5.5h76.7c3.1,0,5.5,2.5,5.5,5.5
		C474.6,208.3,472.1,210.8,469.1,210.8z"/>
	<path class="st7" d="M540.3,229.4h-148c-3.1,0-5.5-2.5-5.5-5.5c0-3,2.5-5.5,5.5-5.5h148c3.1,0,5.5,2.5,5.5,5.5
		S543.3,229.4,540.3,229.4C540.3,229.4,540.3,229.4,540.3,229.4z"/>
	<circle class="st7" cx="355.4" cy="214.6" r="20.7"/>
	<path class="st6" d="M540.3,251.9h-19.4c-3.1,0-5.5-2.5-5.5-5.5s2.5-5.5,5.5-5.5c0,0,0,0,0,0h19.4c3.1,0,5.5,2.5,5.5,5.5
		C545.8,249.4,543.3,251.9,540.3,251.9z"/>
	<path class="st5" d="M540.3,251.9h-19.4c-3.1,0-5.5-2.5-5.5-5.5s2.5-5.5,5.5-5.5c0,0,0,0,0,0h19.4c3.1,0,5.5,2.5,5.5,5.5
		C545.8,249.4,543.3,251.9,540.3,251.9z"/>
	<path class="st5" d="M550.2,587.6H330.3c-6.5,0-11.7-5.3-11.8-11.8v-70.5c0-6.5,5.3-11.7,11.8-11.8h219.9c6.5,0,11.7,5.3,11.8,11.8
		v70.5C561.9,582.3,556.6,587.6,550.2,587.6z M330.3,494.9c-5.7,0-10.4,4.6-10.4,10.4v70.5c0,5.7,4.6,10.4,10.4,10.4h219.9
		c5.7,0,10.4-4.6,10.4-10.4v-70.5c0-5.7-4.6-10.4-10.4-10.4H330.3z"/>
	<path class="st7" d="M469.1,536.8h-76.7c-3.1,0-5.5-2.5-5.5-5.5c0-3.1,2.5-5.5,5.5-5.5h76.7c3.1,0,5.5,2.5,5.5,5.5
		C474.6,534.3,472.1,536.8,469.1,536.8z"/>
	<path class="st7" d="M540.3,555.4h-148c-3.1,0-5.5-2.5-5.5-5.5c0-3,2.5-5.5,5.5-5.5h148c3.1,0,5.5,2.5,5.5,5.5
		S543.3,555.4,540.3,555.4C540.3,555.4,540.3,555.4,540.3,555.4z"/>
	
		<ellipse transform="matrix(7.088900e-02 -0.9975 0.9975 7.088900e-02 -209.0146 856.7374)" class="st7" cx="355.4" cy="540.6" rx="20.7" ry="20.7"/>
	<path class="st6" d="M540.3,577.9h-19.4c-3.1,0-5.5-2.5-5.5-5.5s2.5-5.5,5.5-5.5c0,0,0,0,0,0h19.4c3.1,0,5.5,2.5,5.5,5.5
		C545.8,575.4,543.3,577.9,540.3,577.9z"/>
	<path class="st5" d="M540.3,577.9h-19.4c-3.1,0-5.5-2.5-5.5-5.5s2.5-5.5,5.5-5.5c0,0,0,0,0,0h19.4c3.1,0,5.5,2.5,5.5,5.5
		C545.8,575.4,543.3,577.9,540.3,577.9z"/>
	<path class="st5" d="M550.2,718.6H330.3c-6.5,0-11.7-5.3-11.8-11.8v-70.5c0-6.5,5.3-11.7,11.8-11.8h219.9c6.5,0,11.7,5.3,11.8,11.8
		v70.5C561.9,713.3,556.6,718.6,550.2,718.6z M330.3,625.9c-5.7,0-10.4,4.6-10.4,10.4v70.5c0,5.7,4.6,10.4,10.4,10.4h219.9
		c5.7,0,10.4-4.6,10.4-10.4v-70.5c0-5.7-4.6-10.4-10.4-10.4H330.3z"/>
	<path class="st7" d="M469.1,667.8h-76.7c-3.1,0-5.5-2.5-5.5-5.5c0-3.1,2.5-5.5,5.5-5.5h76.7c3.1,0,5.5,2.5,5.5,5.5
		C474.6,665.3,472.1,667.8,469.1,667.8z"/>
	<path class="st7" d="M540.3,686.4h-148c-3.1,0-5.5-2.5-5.5-5.5c0-3,2.5-5.5,5.5-5.5h148c3.1,0,5.5,2.5,5.5,5.5
		S543.3,686.4,540.3,686.4C540.3,686.4,540.3,686.4,540.3,686.4z"/>
	
		<ellipse transform="matrix(7.088900e-02 -0.9975 0.9975 7.088900e-02 -339.6851 978.451)" class="st7" cx="355.4" cy="671.6" rx="20.7" ry="20.7"/>
	<path class="st6" d="M540.3,708.9h-19.4c-3.1,0-5.5-2.5-5.5-5.5s2.5-5.5,5.5-5.5c0,0,0,0,0,0h19.4c3.1,0,5.5,2.5,5.5,5.5
		C545.8,706.4,543.3,708.9,540.3,708.9z"/>
	<path class="st5" d="M540.3,708.9h-19.4c-3.1,0-5.5-2.5-5.5-5.5s2.5-5.5,5.5-5.5c0,0,0,0,0,0h19.4c3.1,0,5.5,2.5,5.5,5.5
		C545.8,706.4,543.3,708.9,540.3,708.9z"/>
	<polygon class="st8" points="413.2,838.1 425.5,838.1 431.3,790.8 413.2,790.8 	"/>
	<polygon class="st8" points="364.2,838.1 376.5,838.1 382.3,790.8 364.2,790.8 	"/>
	<circle class="st8" cx="415.6" cy="486.2" r="24.6"/>
	<path class="st4" d="M432.2,827.9h-22.8c-2.5,0-4.5-2-4.5-4.5c0,0,0,0,0-0.1l1.3-108c0-0.8-0.7-1.5-1.5-1.5c-0.8,0-1.4,0.6-1.5,1.3
		L390,823.9c-0.3,2.3-2.2,4-4.5,4h-23c-2.5,0-4.5-2-4.5-4.5c0-0.1,0-0.2,0-0.4L373.2,629l0.4,0l72.6-7.8l-9.6,202.5
		C436.5,826,434.6,827.9,432.2,827.9z"/>
	<path class="st0" d="M374.1,640.9c-2.4,0-4.4-1.9-4.5-4.4c-0.4-12.3-1.1-54.7,6.8-85.9c4.4-17.5,19.8-30,37.8-30.8l0,0
		c17.7-1,34.1,9.5,40.6,26c13.3,33.7,25.8,75.2,10.2,81.8c-20.5,8.5-74.5,12.3-90.6,13.3C374.3,640.9,374.2,640.9,374.1,640.9z"/>
	<path class="st8" d="M468,461.3c0.4,0.4,0.8,0.8,1.2,1.1l-2.6,49.5l-10.7,5.5l6.2,17.3l19.9-7.9c3.3-1.3,5.4-4.6,5-8.2l-5.2-56.2
		c4.6-3.5,5.6-10,2.1-14.7c-3.5-4.6-10-5.6-14.7-2.1c-4.6,3.5-5.6,10-2.1,14.7C467.4,460.7,467.7,461,468,461.3L468,461.3z"/>
	<path class="st0" d="M466.9,513.8l7.5,21.4c0.8,2.3-0.4,4.9-2.8,5.7c-0.2,0.1-0.4,0.1-0.6,0.2l-22.2,4.3
		c-6.5,2.3-13.6-1.2-15.9-7.7c-2.2-6.5,1.2-13.6,7.7-15.9l20-10.5c2.2-1.2,4.9-0.3,6.1,1.9C466.7,513.4,466.8,513.6,466.9,513.8
		L466.9,513.8z"/>
	<path class="st8" d="M361.6,461.3c-0.4,0.4-0.8,0.8-1.2,1.1l2.6,49.5l10.7,5.5l-6.2,17.3l-19.9-7.9c-3.3-1.3-5.4-4.6-5-8.2
		l5.2-56.2c-4.6-3.5-5.6-10-2.1-14.7c3.5-4.6,10-5.6,14.7-2.1c4.6,3.5,5.6,10,2.1,14.7C362.2,460.7,361.9,461,361.6,461.3
		L361.6,461.3z"/>
	<path class="st0" d="M365.3,511.1c1.2-0.5,2.6-0.4,3.7,0.2l20,10.5c6.5,2.3,9.9,9.4,7.6,15.9c-2.3,6.5-9.4,9.9-15.9,7.7l-22.2-4.3
		c-2.4-0.5-4-2.8-3.6-5.3c0-0.2,0.1-0.4,0.2-0.6l7.5-21.4C363.2,512.6,364.1,511.6,365.3,511.1z"/>
	<path class="st4" d="M425.2,490.3c-0.3-6.4,3.3-12.4,9-15.2c7.5-3.9,12.2-12.1,10.1-19.6c-2.6-9.6-15.7-15.8-26.3-12.5
		c-2.9,1-5.6,2.3-8.3,3.8l-6.9,3.7c-3,1.5-5.8,3.2-8.5,5c-8.3,6.1-12.6,16.3-11.3,26.5c1.4,9.8,7.8,18.7,16.5,24.9
		c3.3,2.5,7.2,4.2,11.3,5c4.2,0.7,8.9-0.1,11.9-2.7c4.8-4.1,4.3-10.9,2.7-16.6C425.3,492,425.2,491.2,425.2,490.3z"/>
</g>
</svg>
